<?xml version="1.0" encoding="UTF-8" standalone="no"?>
<!-- Generator: Adobe Illustrator 25.4.1, SVG Export Plug-In . SVG Version: 6.00 Build 0)  -->

<svg
   version="1.1"
   id="Layer_1"
   x="0px"
   y="0px"
   viewBox="-1 -1 220.7 65.699997"
   xml:space="preserve"
   sodipodi:docname="logo-dans.svg"
   width="220.7"
   height="65.699997"
   inkscape:version="1.3.2 (091e20ef0f, 2023-11-25)"
   xmlns:inkscape="http://www.inkscape.org/namespaces/inkscape"
   xmlns:sodipodi="http://sodipodi.sourceforge.net/DTD/sodipodi-0.dtd"
   xmlns="http://www.w3.org/2000/svg"
   xmlns:svg="http://www.w3.org/2000/svg"><defs
   id="defs30" /><sodipodi:namedview
   id="namedview30"
   pagecolor="#ffffff"
   bordercolor="#666666"
   borderopacity="1.0"
   inkscape:showpageshadow="2"
   inkscape:pageopacity="0.0"
   inkscape:pagecheckerboard="0"
   inkscape:deskcolor="#d1d1d1"
   inkscape:zoom="5.2415254"
   inkscape:cx="108.27001"
   inkscape:cy="32.337914"
   inkscape:window-width="1920"
   inkscape:window-height="1011"
   inkscape:window-x="0"
   inkscape:window-y="0"
   inkscape:window-maximized="1"
   inkscape:current-layer="Layer_1" />
<style
   type="text/css"
   id="style1">
	.st0{fill:#00AFDB;}
	.st1{fill:#EE3224;}
</style>
<g
   id="g30"
   transform="translate(-9.7,-12.6)">
	<path
   class="st0"
   d="m 48,44.9 v 0 C 45,32.7 34.2,29.3 22.2,29.3 H 9.7 v 46.1 h 5.6 V 44.9 H 19 v -8.3 h 5.2 c 5.5,0 10.9,3 13.5,8.3 h -12 v 30.5 h 2.5 C 39,75.4 49.4,67.4 49.4,53.3 49.5,50.2 49,47.4 48,44.9"
   id="path1" />
	<polygon
   class="st0"
   points="91.4,44.9 77.7,44.9 83,29.4 74.9,29.4 68.9,44.9 57,75.5 66.5,75.5 70.5,64.9 89.2,64.9 93.2,75.5 103.4,75.5 "
   id="polygon1" />
	<polyline
   class="st0"
   points="148.7,29.4 148.7,57.7 142.2,57.7 127.8,29.4 116.5,29.4 116.5,75.5 125.3,75.5 125.3,44.9    127.4,44.9 143.1,75.5 154.4,75.5 154.4,57.7 159.7,57.7 159.7,29.4 148.7,29.4  "
   id="polyline1" />
	<path
   class="st0"
   d="m 184.4,42.3 c 0,-5 4.1,-6.4 7.3,-6.4 3.1,0 6.2,0.7 9.1,1.9 V 30 c -3.1,-0.9 -6.4,-1.3 -9.9,-1.3 -8.1,0 -17.1,3.8 -17.1,14.1 0,7.1 4.3,11 8.7,13.8 0.2,0.1 1.7,-2.3 1.9,-2.2 5.2,2.2 10.6,4.3 10.6,8.8 0,4.2 -4.7,5.9 -8.2,5.9 -0.9,0 -1.9,-0.1 -2.8,-0.2 v 7.3 c 1,0.1 2.1,0.1 3.3,0.1 5.3,0 10.2,-1.3 13.4,-4.2 V 53.2 c -5.8,-5.3 -16.3,-5.1 -16.3,-10.9"
   id="path2" />
	<path
   class="st1"
   d="m 27.2,13.2 h 1.7 c 2.7,0 3.9,1.4 3.9,3.1 0,2.7 -1.7,4.6 -4.9,4.6 h -2.3 l 1.6,-7.7 m -0.3,6.7 H 28 c 2.2,0 3.5,-1.4 3.5,-3.5 0,-1.3 -0.6,-2.3 -2.8,-2.3 h -0.6 z"
   id="path3" />
	<path
   class="st1"
   d="m 34.7,15.4 c 0.5,-0.2 1.2,-0.3 1.6,-0.3 1.1,0 2.2,0.4 2.2,1.8 0,0.3 0,0.6 -0.1,0.9 -0.2,1 -0.4,2.1 -0.6,3.1 h -1 C 36.9,20.6 36.9,20.3 37,20 v 0 c -0.4,0.7 -1.1,1.1 -1.8,1.1 -0.9,0 -1.8,-0.5 -1.8,-1.6 0,-1.6 1.4,-2 3.3,-2 0.2,0 0.5,0 0.7,0 0,-0.1 0.1,-0.2 0.1,-0.4 0,-0.8 -0.5,-1.1 -1.3,-1.1 -0.6,0 -1.3,0.2 -1.7,0.5 l 0.2,-1.1 m 2.5,2.8 h -0.8 c -0.8,0 -2,0.2 -2,1.2 0,0.5 0.4,0.8 0.9,0.8 1.1,0 1.8,-1.1 1.9,-2 z"
   id="path4" />
	<path
   class="st1"
   d="m 40,15.3 h 1.3 l 0.3,-1.3 1.1,-0.4 -0.4,1.7 h 1.5 l -0.2,0.8 H 42 l -0.5,2.4 c -0.1,0.3 -0.2,0.9 -0.2,1.1 0,0.4 0.2,0.6 0.7,0.6 0.2,0 0.5,-0.1 0.7,-0.1 L 42.5,21 c 0,0 -0.5,0 -0.7,0 -1,0 -1.3,-0.6 -1.3,-1.2 0,-0.4 0.1,-1 0.2,-1.3 l 0.5,-2.3 H 40 v -0.9"
   id="path5" />
	<path
   class="st1"
   d="m 45.1,15.4 c 0.5,-0.2 1.2,-0.3 1.6,-0.3 1.1,0 2.2,0.4 2.2,1.8 0,0.3 0,0.6 -0.1,0.9 -0.2,1 -0.4,2.1 -0.6,3.1 h -1 c 0.1,-0.3 0.1,-0.6 0.2,-0.9 v 0 c -0.4,0.7 -1.1,1.1 -1.8,1.1 -0.9,0 -1.8,-0.5 -1.8,-1.6 0,-1.6 1.4,-2 3.3,-2 0.2,0 0.5,0 0.7,0 0,-0.1 0.1,-0.2 0.1,-0.4 0,-0.8 -0.5,-1.1 -1.3,-1.1 -0.6,0 -1.3,0.2 -1.7,0.5 l 0.2,-1.1 m 2.5,2.8 h -0.8 c -0.8,0 -2,0.2 -2,1.2 0,0.5 0.4,0.8 0.9,0.8 1.2,0 1.8,-1.1 1.9,-2 z"
   id="path6" />
	<path
   class="st1"
   d="m 57.4,13.2 h 1.1 l 1.7,7.7 H 59 L 58.6,19 h -3.8 l -1.2,1.9 h -1.2 l 5,-7.7 m 0.3,1.2 -2.3,3.7 h 3 z"
   id="path7" />
	<path
   class="st1"
   d="m 62,16.1 c 0,-0.2 0.1,-0.5 0.2,-0.9 h 1 l -0.2,1 v 0 c 0.3,-0.5 0.9,-1 1.9,-1 0.1,0 0.3,0 0.5,0.1 l -0.2,0.9 c -0.2,-0.1 -0.4,-0.1 -0.4,-0.1 -1.3,0 -1.9,1.4 -2,2.1 L 62.2,21 h -1 L 62,16.1"
   id="path8" />
	<path
   class="st1"
   d="m 69.8,16.3 c -0.4,-0.2 -0.7,-0.3 -1,-0.3 -1.3,0 -2.2,1.2 -2.2,2.5 0,1 0.5,1.7 1.5,1.7 0.4,0 0.8,-0.1 1.1,-0.3 l -0.2,1 C 68.7,21 68.3,21 68,21 c -1.5,0 -2.5,-0.8 -2.5,-2.3 0,-1.9 1.1,-3.5 3.1,-3.5 0.6,0 1,0.1 1.5,0.2 l -0.3,0.9"
   id="path9" />
	<path
   class="st1"
   d="m 72,12.6 h 1 L 72.3,16 v 0 c 0.4,-0.6 1.1,-0.8 1.8,-0.8 1.1,0 1.9,0.6 1.9,1.8 0,0.3 -0.1,0.7 -0.1,1 l -0.6,3 h -1 L 75,17.6 c 0,-0.2 0.1,-0.4 0.1,-0.5 0,-0.6 -0.4,-1 -1,-1 -1.3,0 -1.9,1.4 -2,2.1 L 71.5,21 h -1 L 72,12.6"
   id="path10" />
	<path
   class="st1"
   d="m 78.3,15.3 h 1 l -1.2,5.6 h -1 l 1.2,-5.6 M 79.6,14 h -1.2 l 0.2,-1.2 h 1.2 z"
   id="path11" />
	<polyline
   class="st1"
   points="80.5,15.3 81.6,15.3 82.1,19.8 82.2,19.8 84.7,15.3 85.8,15.3 82.6,20.9 81.4,20.9 80.5,15.3  "
   id="polyline11" />
	<path
   class="st1"
   d="m 86.9,15.3 h 1 l -1.2,5.6 h -1 l 1.2,-5.6 M 88.2,14 H 87 l 0.2,-1.2 h 1.2 z"
   id="path12" />
	<path
   class="st1"
   d="m 89.7,16.1 c 0,-0.2 0.1,-0.5 0.2,-0.9 h 1 l -0.2,0.9 v 0 c 0.3,-0.5 0.9,-1 1.9,-1 1.1,0 1.9,0.6 1.9,1.8 0,0.3 -0.1,0.7 -0.1,1 l -0.6,3 h -1 l 0.7,-3.4 c 0,-0.2 0.1,-0.4 0.1,-0.5 0,-0.6 -0.4,-1 -1,-1 -1.3,0 -1.9,1.4 -2,2.1 L 90,20.9 h -1 l 0.7,-4.8"
   id="path13" />
	<path
   class="st1"
   d="m 101.5,15.3 -1.3,6 c -0.2,1.1 -1.3,2 -3,2 -0.4,0 -1.3,-0.1 -1.9,-0.4 L 95.5,22 c 0.5,0.3 1.2,0.5 1.8,0.5 1.2,0 1.7,-0.8 2,-1.6 l 0.1,-0.6 v 0 c -0.3,0.4 -0.8,0.6 -1.7,0.6 -1,0 -2.1,-0.8 -2.1,-2.2 0,-2.1 1.2,-3.5 2.8,-3.5 0.8,0 1.5,0.3 1.8,1.1 v 0 l 0.2,-1 h 1.1 M 98,20.1 c 0.9,0 1.9,-0.7 1.9,-2.5 0,-0.8 -0.5,-1.5 -1.4,-1.5 -1.2,0 -1.8,1.5 -1.8,2.6 0.1,0.6 0.4,1.4 1.3,1.4 z"
   id="path14" />
	<path
   class="st1"
   d="m 106.5,15.4 c 0.5,-0.2 1.2,-0.3 1.6,-0.3 1.1,0 2.2,0.4 2.2,1.8 0,0.3 0,0.6 -0.1,0.9 -0.2,1 -0.4,2.1 -0.6,3.1 h -1 c 0.1,-0.3 0.1,-0.6 0.2,-0.9 v 0 c -0.4,0.7 -1.1,1.1 -1.8,1.1 -0.9,0 -1.8,-0.5 -1.8,-1.6 0,-1.6 1.4,-2 3.3,-2 0.2,0 0.5,0 0.7,0 0,-0.1 0.1,-0.2 0.1,-0.4 0,-0.8 -0.5,-1.1 -1.3,-1.1 -0.6,0 -1.3,0.2 -1.7,0.5 l 0.2,-1.1 m 2.5,2.8 h -0.8 c -0.8,0 -2,0.2 -2,1.2 0,0.5 0.4,0.8 0.9,0.8 1.1,0 1.8,-1.1 1.9,-2 z"
   id="path15" />
	<path
   class="st1"
   d="m 112.4,16.1 c 0,-0.2 0.1,-0.5 0.2,-0.9 h 1 l -0.2,0.9 v 0 c 0.3,-0.5 0.9,-1 1.9,-1 1.1,0 1.9,0.6 1.9,1.8 0,0.3 -0.1,0.7 -0.1,1 l -0.6,3 h -1 l 0.7,-3.4 c 0,-0.2 0.1,-0.4 0.1,-0.5 0,-0.6 -0.4,-1 -1,-1 -1.3,0 -1.9,1.4 -2,2.1 l -0.6,2.8 h -1 l 0.7,-4.8"
   id="path16" />
	<path
   class="st1"
   d="m 123.4,19 c -0.1,0.6 -0.2,1.2 -0.3,1.9 h -1 c 0.1,-0.3 0.1,-0.6 0.2,-0.9 v 0 c -0.4,0.7 -1.1,1 -1.9,1 -1.4,0 -2.1,-1.1 -2.1,-2.4 0,-1.8 1,-3.5 2.9,-3.5 0.8,0 1.5,0.3 1.8,1.1 v 0 l 0.7,-3.6 h 1 l -1.3,6.4 m -2.7,1.2 c 1.3,0 1.9,-1.6 1.9,-2.7 0,-0.8 -0.5,-1.5 -1.4,-1.5 -1.2,0 -1.9,1.6 -1.9,2.6 0.1,0.9 0.5,1.6 1.4,1.6 z"
   id="path17" />
	<polyline
   class="st1"
   points="129.6,13.2 131.1,13.2 133.3,19.7 133.3,19.7 134.6,13.2 135.7,13.2 134,20.9 132.6,20.9 130.4,14.5    130.4,14.5 129.1,20.9 128,20.9 129.6,13.2  "
   id="polyline17" />
	<path
   class="st1"
   d="m 140.3,20.8 c -0.5,0.1 -1.1,0.2 -1.7,0.2 -1.4,0 -2.6,-0.6 -2.6,-2.5 0,-1.6 1.1,-3.3 3.1,-3.3 1.4,0 2.1,0.8 2.1,2.1 0,0.4 0,0.7 -0.1,1 h -3.9 c 0,0.1 0,0.2 0,0.4 0,1.2 0.7,1.5 1.7,1.5 0.5,0 1.1,-0.1 1.6,-0.3 l -0.2,0.9 m -0.1,-3.2 c 0,-0.2 0,-0.3 0,-0.4 0,-0.7 -0.4,-1.1 -1.2,-1.1 -0.8,0 -1.5,0.7 -1.7,1.6 h 2.9 z"
   id="path18" />
	<path
   class="st1"
   d="m 142.5,15.3 h 1.3 l 0.2,-1.3 1.1,-0.4 -0.4,1.7 h 1.5 l -0.2,0.8 h -1.6 l -0.5,2.4 c -0.1,0.3 -0.2,0.9 -0.2,1.1 0,0.4 0.2,0.6 0.7,0.6 0.2,0 0.5,-0.1 0.7,-0.1 l -0.2,0.9 c -0.2,0.1 -0.7,0.1 -1,0.1 -1,0 -1.3,-0.6 -1.3,-1.2 0,-0.4 0.1,-1 0.2,-1.3 l 0.5,-2.3 h -1.2 l 0.4,-1"
   id="path19" />
	<polyline
   class="st1"
   points="146.7,15.3 147.8,15.3 148.2,19.8 148.2,19.8 150.6,15.3 151.8,15.3 152.2,19.8 152.2,19.8    154.6,15.3 155.7,15.3 152.7,20.9 151.5,20.9 151,16.4 151,16.4 148.6,20.9 147.4,20.9 146.7,15.3  "
   id="polyline19" />
	<path
   class="st1"
   d="m 158.9,15.2 c 1.5,0 2.5,0.9 2.5,2.5 0,1.9 -1.1,3.4 -3.1,3.4 -1.5,0 -2.6,-0.8 -2.6,-2.5 0,-1.9 1.1,-3.4 3.2,-3.4 m -0.7,5 c 1.2,0 2,-1.3 2,-2.6 0,-0.8 -0.5,-1.6 -1.4,-1.6 -1.4,0 -2.1,1.5 -2.1,2.6 0.1,0.9 0.6,1.6 1.5,1.6 z"
   id="path20" />
	<path
   class="st1"
   d="m 163.3,16.1 c 0,-0.2 0.1,-0.5 0.2,-0.9 h 1 l -0.2,0.9 v 0 c 0.3,-0.5 0.9,-1 1.9,-1 0.1,0 0.3,0 0.5,0.1 l -0.2,0.9 C 166.3,16 166.1,16 166.1,16 c -1.3,0 -1.9,1.4 -2,2.1 l -0.6,2.8 h -1 l 0.8,-4.8"
   id="path21" />
	<polyline
   class="st1"
   points="168.4,12.6 169.4,12.6 168.3,17.5 168.4,17.5 171,15.3 172.5,15.3 169.3,17.8 171.6,20.9 170.3,20.9    168.2,18 167.6,20.9 166.6,20.9 168.4,12.6  "
   id="polyline21" />
	<path
   class="st1"
   d="m 177.1,20.8 c -0.5,0.1 -1.1,0.2 -1.7,0.2 -1.4,0 -2.6,-0.6 -2.6,-2.5 0,-1.6 1.1,-3.3 3.1,-3.3 1.4,0 2.1,0.8 2.1,2.1 0,0.4 0,0.7 -0.1,1 H 174 c 0,0.1 0,0.2 0,0.4 0,1.2 0.7,1.5 1.7,1.5 0.5,0 1.1,-0.1 1.6,-0.3 l -0.2,0.9 M 177,17.6 c 0,-0.2 0,-0.3 0,-0.4 0,-0.7 -0.4,-1.1 -1.2,-1.1 -0.8,0 -1.5,0.7 -1.7,1.6 h 2.9 z"
   id="path22" />
	<path
   class="st1"
   d="m 184.1,19 c -0.1,0.6 -0.2,1.2 -0.3,1.9 h -1 c 0.1,-0.3 0.1,-0.6 0.2,-0.9 v 0 c -0.4,0.7 -1.1,1 -1.9,1 -1.4,0 -2.1,-1.1 -2.1,-2.4 0,-1.8 1,-3.5 2.9,-3.5 0.8,0 1.5,0.3 1.8,1.1 v 0 l 0.7,-3.6 h 1 l -1.3,6.4 m -2.6,1.2 c 1.3,0 1.9,-1.6 1.9,-2.7 0,-0.8 -0.5,-1.5 -1.4,-1.5 -1.2,0 -1.9,1.6 -1.9,2.6 0,0.9 0.4,1.6 1.4,1.6 z"
   id="path23" />
	<path
   class="st1"
   d="m 193.6,14.4 c -0.4,-0.2 -0.8,-0.4 -1.4,-0.4 -0.7,0 -1.5,0.3 -1.5,1.2 0,1.3 2.6,1.3 2.6,3.3 0,1.2 -0.8,2.5 -2.7,2.5 -0.9,0 -1.5,-0.2 -2.1,-0.4 l 0.4,-1 c 0.5,0.3 1.1,0.5 1.6,0.5 1.2,0 1.7,-0.7 1.7,-1.4 0,-1.6 -2.6,-1.3 -2.6,-3.4 0,-1.4 1.3,-2.2 2.5,-2.2 0.6,0 1.3,0.1 1.8,0.4 l -0.3,0.9"
   id="path24" />
	<path
   class="st1"
   d="m 198.6,20.8 c -0.5,0.1 -1.1,0.2 -1.7,0.2 -1.4,0 -2.6,-0.6 -2.6,-2.5 0,-1.6 1.1,-3.3 3.1,-3.3 1.4,0 2.1,0.8 2.1,2.1 0,0.4 0,0.7 -0.1,1 h -3.9 c 0,0.1 0,0.2 0,0.4 0,1.2 0.7,1.5 1.7,1.5 0.5,0 1.1,-0.1 1.6,-0.3 l -0.2,0.9 m -0.1,-3.2 c 0,-0.2 0,-0.3 0,-0.4 0,-0.7 -0.4,-1.1 -1.2,-1.1 -0.8,0 -1.5,0.7 -1.7,1.6 h 2.9 z"
   id="path25" />
	<path
   class="st1"
   d="m 201.3,16.1 c 0,-0.2 0.1,-0.5 0.2,-0.9 h 1 l -0.2,0.9 v 0 c 0.3,-0.5 0.9,-1 1.9,-1 0.1,0 0.3,0 0.5,0.1 l -0.2,0.9 C 204.3,16 204.1,16 204.1,16 c -1.3,0 -1.9,1.4 -2,2.1 l -0.6,2.8 h -1 l 0.8,-4.8"
   id="path26" />
	<polyline
   class="st1"
   points="205,15.3 206.1,15.3 206.7,19.8 206.7,19.8 209.2,15.3 210.3,15.3 207.1,20.9 205.9,20.9 205,15.3     "
   id="polyline26" />
	<path
   class="st1"
   d="m 211.4,15.3 h 1 l -1.2,5.6 h -1 l 1.2,-5.6 m 1.4,-1.3 h -1.2 l 0.2,-1.2 h 1.2 z"
   id="path27" />
	<path
   class="st1"
   d="m 217.7,16.3 c -0.4,-0.2 -0.7,-0.3 -1,-0.3 -1.3,0 -2.2,1.2 -2.2,2.5 0,1 0.5,1.7 1.5,1.7 0.4,0 0.8,-0.1 1.1,-0.3 l -0.2,1 c -0.3,0.1 -0.7,0.1 -1.1,0.1 -1.5,0 -2.5,-0.8 -2.5,-2.3 0,-1.9 1.1,-3.5 3.1,-3.5 0.6,0 1,0.1 1.5,0.2 l -0.2,0.9"
   id="path28" />
	<path
   class="st1"
   d="m 222.5,20.8 c -0.5,0.1 -1.1,0.2 -1.7,0.2 -1.4,0 -2.6,-0.6 -2.6,-2.5 0,-1.6 1.1,-3.3 3.1,-3.3 1.4,0 2.1,0.8 2.1,2.1 0,0.4 0,0.7 -0.1,1 h -3.9 c 0,0.1 0,0.2 0,0.4 0,1.2 0.7,1.5 1.7,1.5 0.5,0 1.1,-0.1 1.6,-0.3 l -0.2,0.9 m -0.1,-3.2 c 0,-0.2 0,-0.3 0,-0.4 0,-0.7 -0.4,-1.1 -1.2,-1.1 -0.8,0 -1.5,0.7 -1.7,1.6 h 2.9 z"
   id="path29" />
	<path
   class="st1"
   d="m 227.9,16.3 c -0.3,-0.1 -0.7,-0.3 -1.1,-0.3 -0.5,0 -1,0.1 -1,0.7 0,1 1.9,1 1.9,2.6 0,1.4 -1.2,1.8 -2.1,1.8 -0.9,0 -1.2,-0.1 -1.6,-0.3 l 0.2,-0.9 c 0.4,0.2 0.8,0.3 1.3,0.3 0.6,0 1.2,-0.2 1.2,-0.9 0,-1 -1.9,-1.1 -1.9,-2.5 0,-1.2 1.2,-1.7 2.1,-1.7 0.5,0 1,0.1 1.5,0.3 l -0.5,0.9"
   id="path30" />
</g>
</svg>
